<svg xmlns="http://www.w3.org/2000/svg" version="1.0" width="256.000000pt" height="317.000000pt" viewBox="0 0 256.000000 317.000000" preserveAspectRatio="xMidYMid meet">

<g transform="translate(0.000000,317.000000) scale(0.100000,-0.100000)" fill="#d9b447" stroke="none">
<path d="M1892 3023 c-3 -58 -38 -259 -62 -351 -108 -424 -336 -809 -685 -1157 -150 -150 -281 -258 -454 -373 -67 -45 -117 -82 -111 -82 6 0 57 12 114 26 98 24 108 30 187 93 411 331 742 766 894 1176 79 211 131 485 123 640 -2 40 -5 52 -6 28z" fill="#d9b447"/>
<path d="M1965 2874 c-41 -252 -79 -391 -153 -566 -179 -422 -499 -819 -942 -1170 l-35 -28 99 35 c114 41 161 77 319 247 374 405 617 835 697 1231 12 58 31 279 25 286 -2 1 -7 -14 -10 -35z" fill="#d9b447"/>
<path d="M1967 2463 c-126 -397 -448 -883 -808 -1216 l-84 -78 80 39 c65 33 99 59 182 144 296 299 517 671 628 1060 41 142 42 180 2 51z" fill="#d9b447"/>
<path d="M2011 2332 c-36 -101 -144 -324 -213 -437 -112 -182 -246 -359 -388 -510 -41 -44 -86 -93 -100 -109 l-25 -28 61 30 c60 30 100 70 223 220 88 107 233 337 313 500 74 147 168 386 156 397 -2 2 -14 -26 -27 -63z" fill="#d9b447"/>
<path d="M2081 2320 c-1 -8 -27 -73 -59 -145 -103 -231 -244 -457 -427 -684 -55 -68 -109 -135 -119 -149 l-20 -25 43 24 c85 48 335 407 469 675 63 125 126 290 118 308 -2 6 -5 4 -5 -4z" fill="#d9b447"/>
<path d="M2041 2071 c-69 -146 -221 -390 -354 -564 -32 -43 -57 -81 -54 -83 21 -22 206 233 321 443 57 102 130 263 123 269 -2 2 -18 -27 -36 -65z" fill="#d9b447"/>
<path d="M516 955 c-56 -30 -75 -83 -50 -143 8 -20 48 -68 89 -107 70 -66 75 -73 75 -112 0 -55 -28 -83 -83 -83 -50 0 -74 14 -91 53 l-14 32 -1 -47 c-1 -50 -1 -49 66 -63 77 -15 160 39 170 112 8 59 -19 105 -99 171 -86 71 -104 124 -56 165 39 33 106 18 132 -31 l15 -27 1 41 c0 35 -4 43 -22 48 -41 10 -102 6 -132 -9z" fill="#d9b447"/>
<path d="M850 718 c-76 -193 -82 -205 -115 -218 -14 -6 0 -9 44 -9 54 -1 62 1 48 12 -16 11 -16 16 4 75 l21 62 67 0 68 0 26 -66 c15 -37 24 -71 21 -75 -3 -5 21 -9 53 -9 55 1 57 1 32 15 -29 16 -29 17 -116 225 -35 85 -67 158 -72 163 -5 5 -40 -72 -81 -175z m104 10 l25 -68 -59 0 -59 0 26 76 c14 42 29 72 33 67 5 -4 20 -38 34 -75z" fill="#d9b447"/>
<path d="M1197 883 c31 -6 36 -45 31 -220 -4 -128 -7 -147 -23 -159 -17 -12 -11 -14 51 -13 48 0 63 3 48 9 -22 9 -34 50 -34 123 l0 37 43 -1 c40 0 44 -3 92 -66 60 -78 96 -103 150 -102 l40 0 -36 15 c-21 9 -60 44 -99 90 -53 64 -62 79 -52 93 54 73 64 110 42 152 -20 37 -63 49 -172 48 -57 -1 -93 -4 -81 -6z m188 -38 c20 -19 25 -34 25 -73 0 -61 -25 -92 -75 -92 -63 0 -65 3 -65 101 l0 89 45 0 c35 0 52 -6 70 -25z" fill="#d9b447"/>
<path d="M1628 880 c22 -9 22 -12 22 -180 0 -157 -2 -172 -20 -190 l-20 -20 73 1 c60 0 68 2 45 11 l-28 10 0 178 c0 160 2 180 18 189 13 8 1 10 -48 10 -49 0 -59 -3 -42 -9z" fill="#d9b447"/>
<path d="M1858 883 c22 -4 22 -6 22 -188 0 -165 -2 -185 -17 -194 -14 -8 0 -10 52 -10 49 0 64 3 49 9 -22 9 -34 59 -34 146 l0 44 58 0 c51 0 60 -3 70 -22 10 -21 11 -19 11 18 l1 41 -55 -10 c-81 -14 -85 -10 -85 78 l0 75 59 0 c49 0 62 -4 74 -20 14 -20 15 -20 19 10 l5 30 -126 -1 c-69 -1 -116 -4 -103 -6z" fill="#d9b447"/>
<path d="M63 419 c15 -9 17 -27 17 -144 0 -108 -3 -137 -16 -149 -14 -15 -11 -16 38 -15 29 0 46 3 38 6 -27 10 -30 26 -30 160 0 115 2 133 18 142 13 8 6 10 -33 10 -39 0 -46 -2 -32 -10z" fill="#d9b447"/>
<path d="M2391 404 c-12 -15 -21 -30 -21 -35 0 -27 28 -70 70 -110 40 -36 50 -53 50 -77 0 -63 -84 -80 -115 -23 l-14 26 -1 -31 c0 -36 13 -44 71 -44 54 0 89 34 89 88 0 35 -7 45 -60 95 -33 32 -60 65 -60 76 0 48 64 67 100 31 l20 -20 0 25 c0 24 -3 25 -54 25 -47 0 -57 -4 -75 -26z" fill="#d9b447"/>
<path d="M1253 380 c-28 -11 -46 -46 -39 -75 3 -12 31 -44 61 -69 60 -52 68 -77 31 -101 -28 -18 -71 -12 -86 14 -9 13 -10 12 -8 -9 3 -22 9 -25 46 -28 75 -5 116 39 92 99 -7 16 -34 45 -61 64 -49 35 -60 60 -37 83 17 17 64 15 82 -4 15 -14 16 -14 16 4 0 29 -51 40 -97 22z" fill="#d9b447"/>
<path d="M240 251 c0 -94 -3 -131 -12 -134 -7 -3 7 -6 31 -6 38 -1 42 1 29 11 -12 10 -18 39 -23 106 -4 50 -5 92 -3 92 3 0 53 -48 111 -107 l107 -108 0 118 c0 65 5 127 10 138 10 17 7 19 -22 19 -18 0 -28 -4 -22 -8 7 -4 13 -46 15 -105 2 -53 4 -97 3 -97 -1 0 -48 47 -104 105 -57 58 -107 105 -112 105 -4 0 -8 -58 -8 -129z" fill="#d9b447"/>
<path d="M588 373 c17 -7 17 -234 0 -251 -21 -21 140 -16 181 6 99 50 105 183 10 234 -25 14 -54 18 -119 17 -47 0 -79 -3 -72 -6z m147 -17 c69 -29 99 -133 54 -189 -34 -44 -128 -58 -151 -23 -10 14 -10 210 -1 219 11 12 62 8 98 -7z" fill="#d9b447"/>
<path d="M908 368 c8 -8 12 -46 12 -106 0 -90 1 -95 29 -123 50 -49 140 -37 173 24 6 12 14 66 17 120 l6 97 -30 -1 c-16 0 -24 -3 -17 -6 16 -6 17 -172 1 -207 -17 -36 -65 -54 -98 -35 -42 24 -52 54 -49 157 l3 92 -29 0 c-23 0 -27 -3 -18 -12z" fill="#d9b447"/>
<path d="M1407 361 c-4 -17 -2 -17 24 -4 16 8 39 13 51 11 22 -3 23 -8 26 -96 1 -51 -1 -108 -6 -126 l-10 -34 42 0 c32 -1 37 1 24 9 -16 9 -18 26 -18 129 0 118 0 120 23 120 12 0 34 -7 50 -14 25 -14 27 -13 27 5 0 18 -8 19 -114 19 -102 0 -114 -2 -119 -19z" fill="#d9b447"/>
<path d="M1708 253 c2 -73 -1 -129 -6 -132 -6 -3 11 -6 36 -7 26 0 39 2 30 4 -15 3 -18 14 -18 58 0 50 2 54 24 54 18 0 35 -14 62 -51 37 -51 66 -69 107 -69 20 1 19 2 -6 13 -23 10 -107 99 -107 114 0 3 9 16 20 30 11 14 20 36 20 49 0 44 -33 64 -102 64 l-63 0 3 -127z m102 107 c23 -13 34 -59 21 -93 -9 -22 -17 -27 -46 -27 l-35 0 0 65 c0 59 2 65 21 65 11 0 29 -4 39 -10z" fill="#d9b447"/>
<path d="M1988 253 c2 -85 0 -128 -8 -133 -6 -4 11 -7 37 -7 26 0 40 2 30 4 -16 4 -18 16 -15 134 l3 129 -25 0 -25 0 3 -127z" fill="#d9b447"/>
<path d="M2149 362 c13 -25 2 -234 -13 -245 -6 -4 25 -6 69 -5 70 3 80 5 84 23 3 16 1 17 -12 6 -9 -7 -31 -11 -49 -9 -33 3 -33 3 -36 61 l-3 59 42 -4 c25 -2 44 2 46 8 3 8 -10 10 -42 7 l-45 -6 0 58 0 58 37 -6 c20 -4 40 -12 45 -19 5 -9 8 -6 8 10 0 21 -4 22 -70 22 -66 0 -70 -1 -61 -18z" fill="#d9b447"/>
</g>
</svg>